<?xml version="1.0" encoding="iso-8859-1"?>
<!-- Generator: Adobe Illustrator 19.0.0, SVG Export Plug-In . SVG Version: 6.00 Build 0)  -->
<svg version="1.1" id="Capa_1" xmlns="http://www.w3.org/2000/svg" xmlns:xlink="http://www.w3.org/1999/xlink" x="0px" y="0px"
	 viewBox="0 0 512 512" style="enable-background:new 0 0 512 512;" xml:space="preserve">
<g>
	<path style="fill:#F8B548;" d="M280.672,239.664c-4.72,0-8.544-3.824-8.544-8.544c0-8.896-7.232-16.128-16.128-16.128
		c-8.896,0-16.128,7.232-16.128,16.128c0,4.72-3.824,8.544-8.544,8.544s-8.544-3.824-8.544-8.544c0-18.32,14.896-33.2,33.2-33.2
		c18.32,0,33.2,14.896,33.2,33.2C289.216,235.84,285.392,239.664,280.672,239.664z"/>
	<path style="fill:#F8B548;" d="M256,208.176c-4.72,0-8.544-3.824-8.544-8.544v-35.216c0-4.72,3.824-8.544,8.544-8.544
		s8.544,3.824,8.544,8.544v35.216C264.544,204.352,260.72,208.176,256,208.176z"/>
</g>
<path style="fill:#FDBC4B;" d="M256,512c-79.12,0-143.488-64.368-143.488-143.488S176.88,225.024,256,225.024
	s143.488,64.368,143.488,143.488S335.12,512,256,512z"/>
<path style="fill:#FFE28F;" d="M256,481.008c-62.032,0-112.512-50.464-112.512-112.512S193.968,256,256,256
	s112.512,50.464,112.512,112.512S318.032,481.008,256,481.008z"/>
<rect x="132.224" style="fill:#3789C9;" width="49.504" height="155.888"/>
<rect x="181.728" style="fill:#E5E5E5;" width="49.504" height="155.888"/>
<rect x="231.248" style="fill:#3789C9;" width="49.504" height="155.888"/>
<rect x="280.752" style="fill:#E5E5E5;" width="49.504" height="155.888"/>
<rect x="330.272" style="fill:#3789C9;" width="49.504" height="155.888"/>
<path style="fill:#ED6362;" d="M383.184,169.712H128.816c-7.152,0-12.944-5.792-12.944-12.944v-1.76
	c0-7.152,5.792-12.944,12.944-12.944h254.368c7.152,0,12.944,5.792,12.944,12.944v1.744
	C396.128,163.904,390.336,169.712,383.184,169.712z"/>
<path style="opacity:0.3;fill:#FFFFFF;enable-background:new    ;" d="M302.816,322.8h-85.248c-7.808,0-13.424-6.4-13.424-14.208
	c0,0,0,0,0-0.16s0-0.16,0-0.16c0-7.648,5.616-14.208,13.424-14.208h56.048c8.592,0,16.24-6.4,16.704-14.992
	c0.464-9.376-6.864-16.864-15.92-16.864h-54.88c-44.112,15.232-75.936,57.056-75.936,106.288c0,51.072,34.24,94.224,80.944,107.92
	c1.808-0.64,3.712-1.056,5.68-1.056h41.2c8.592-0.16,15.456-7.184,15.456-15.92c0-8.752-7.184-15.92-15.92-15.92h-56.512
	c-7.488,0-13.584-6.096-13.424-13.424v-1.248c-0.464-7.184,5.312-13.424,12.656-13.424h68.864c8.752,0,16.4-6.4,17.024-14.992
	c0.304-9.216-6.864-16.864-16.08-16.864H219.76c-7.344,0-13.424-6.096-13.424-13.424l0.16-0.944v-0.16
	c-0.16-7.808,6.24-14.208,14.048-14.208h81.344c8.752,0,16.4-6.4,17.024-15.152C319.216,330.464,312.032,322.8,302.816,322.8z"/>
<polygon style="fill:#FFCC5B;" points="256,274.048 278.08,342 349.52,342 291.728,384 313.808,451.952 256,409.952 
	198.192,451.952 220.272,384 162.48,342 233.92,342 "/>
<g>
	<polygon style="fill:#FDBC4B;" points="256,274.048 256,371.04 278.08,342 	"/>
	<polygon style="fill:#FDBC4B;" points="256,371.04 349.52,342 291.728,384 	"/>
	<polygon style="fill:#FDBC4B;" points="256,371.04 313.808,451.952 256,409.952 	"/>
	<polygon style="fill:#FDBC4B;" points="256,371.04 220.272,384 198.192,451.952 	"/>
	<polygon style="fill:#FDBC4B;" points="162.48,342 233.92,342 256,371.04 	"/>
</g>
<g>
</g>
<g>
</g>
<g>
</g>
<g>
</g>
<g>
</g>
<g>
</g>
<g>
</g>
<g>
</g>
<g>
</g>
<g>
</g>
<g>
</g>
<g>
</g>
<g>
</g>
<g>
</g>
<g>
</g>
</svg>
